<mxfile host="app.diagrams.net" agent="Mozilla/5.0 (X11; Linux x86_64; rv:136.0) Gecko/20100101 Firefox/136.0" version="26.1.0">
  <diagram name="Page-1" id="zsXDi24pqI5ges3mdlN4">
    <mxGraphModel dx="793" dy="1102" grid="1" gridSize="10" guides="1" tooltips="1" connect="1" arrows="1" fold="1" page="1" pageScale="1" pageWidth="850" pageHeight="1100" math="0" shadow="0">
      <root>
        <mxCell id="0" />
        <mxCell id="1" parent="0" />
        <mxCell id="SkdwUXfXjUMocaD1cpHG-3" value="" style="shape=flexArrow;endArrow=classic;html=1;rounded=0;width=23;endSize=10.44;" edge="1" parent="1">
          <mxGeometry width="50" height="50" relative="1" as="geometry">
            <mxPoint x="399.5" y="120" as="sourcePoint" />
            <mxPoint x="399.5" y="200" as="targetPoint" />
          </mxGeometry>
        </mxCell>
        <mxCell id="SkdwUXfXjUMocaD1cpHG-5" value="INIT VAR + ENV" style="rounded=0;whiteSpace=wrap;html=1;" vertex="1" parent="1">
          <mxGeometry x="330" y="210" width="140" height="50" as="geometry" />
        </mxCell>
        <mxCell id="SkdwUXfXjUMocaD1cpHG-7" value="" style="ellipse;whiteSpace=wrap;html=1;" vertex="1" parent="1">
          <mxGeometry x="285" y="20" width="230" height="80" as="geometry" />
        </mxCell>
        <mxCell id="SkdwUXfXjUMocaD1cpHG-2" value="MAIN" style="text;html=1;align=center;verticalAlign=middle;whiteSpace=wrap;rounded=0;shadow=0;" vertex="1" parent="1">
          <mxGeometry x="350" y="45" width="100" height="30" as="geometry" />
        </mxCell>
        <mxCell id="SkdwUXfXjUMocaD1cpHG-9" value="" style="shape=flexArrow;endArrow=classic;html=1;rounded=0;width=23;endSize=10.44;" edge="1" parent="1">
          <mxGeometry width="50" height="50" relative="1" as="geometry">
            <mxPoint x="399.5" y="280" as="sourcePoint" />
            <mxPoint x="399.5" y="360" as="targetPoint" />
          </mxGeometry>
        </mxCell>
        <mxCell id="SkdwUXfXjUMocaD1cpHG-10" value="PARSING + LEXER" style="rounded=0;whiteSpace=wrap;html=1;" vertex="1" parent="1">
          <mxGeometry x="330" y="380" width="140" height="50" as="geometry" />
        </mxCell>
        <mxCell id="SkdwUXfXjUMocaD1cpHG-13" value="Builtin" style="shape=process;whiteSpace=wrap;html=1;backgroundOutline=1;" vertex="1" parent="1">
          <mxGeometry x="200" y="530" width="120" height="60" as="geometry" />
        </mxCell>
        <mxCell id="SkdwUXfXjUMocaD1cpHG-15" value="Exec" style="shape=process;whiteSpace=wrap;html=1;backgroundOutline=1;" vertex="1" parent="1">
          <mxGeometry x="480" y="530" width="120" height="60" as="geometry" />
        </mxCell>
        <mxCell id="SkdwUXfXjUMocaD1cpHG-16" value="" style="shape=flexArrow;endArrow=classic;html=1;rounded=0;" edge="1" parent="1">
          <mxGeometry width="50" height="50" relative="1" as="geometry">
            <mxPoint x="330" y="440" as="sourcePoint" />
            <mxPoint x="290" y="510" as="targetPoint" />
            <Array as="points" />
          </mxGeometry>
        </mxCell>
        <mxCell id="SkdwUXfXjUMocaD1cpHG-18" value="" style="shape=flexArrow;endArrow=classic;html=1;rounded=0;" edge="1" parent="1">
          <mxGeometry width="50" height="50" relative="1" as="geometry">
            <mxPoint x="470" y="440" as="sourcePoint" />
            <mxPoint x="510" y="510" as="targetPoint" />
            <Array as="points" />
          </mxGeometry>
        </mxCell>
        <mxCell id="SkdwUXfXjUMocaD1cpHG-20" value="HISTORIQUE" style="ellipse;whiteSpace=wrap;html=1;" vertex="1" parent="1">
          <mxGeometry x="620" y="365" width="120" height="80" as="geometry" />
        </mxCell>
        <mxCell id="SkdwUXfXjUMocaD1cpHG-22" value="" style="endArrow=none;html=1;rounded=0;entryX=0;entryY=0.5;entryDx=0;entryDy=0;" edge="1" parent="1">
          <mxGeometry width="50" height="50" relative="1" as="geometry">
            <mxPoint x="470" y="405" as="sourcePoint" />
            <mxPoint x="620" y="404.5" as="targetPoint" />
          </mxGeometry>
        </mxCell>
        <mxCell id="SkdwUXfXjUMocaD1cpHG-26" value="" style="shape=flexArrow;endArrow=classic;html=1;rounded=0;" edge="1" parent="1">
          <mxGeometry width="50" height="50" relative="1" as="geometry">
            <mxPoint x="270" y="600" as="sourcePoint" />
            <mxPoint x="350" y="670" as="targetPoint" />
          </mxGeometry>
        </mxCell>
        <mxCell id="SkdwUXfXjUMocaD1cpHG-28" value="" style="shape=flexArrow;endArrow=classic;html=1;rounded=0;" edge="1" parent="1">
          <mxGeometry width="50" height="50" relative="1" as="geometry">
            <mxPoint x="550" y="600" as="sourcePoint" />
            <mxPoint x="470" y="670" as="targetPoint" />
          </mxGeometry>
        </mxCell>
        <mxCell id="SkdwUXfXjUMocaD1cpHG-29" value="" style="endArrow=none;html=1;rounded=0;" edge="1" parent="1">
          <mxGeometry width="50" height="50" relative="1" as="geometry">
            <mxPoint x="160" y="405" as="sourcePoint" />
            <mxPoint x="330" y="404.5" as="targetPoint" />
          </mxGeometry>
        </mxCell>
        <mxCell id="SkdwUXfXjUMocaD1cpHG-31" value="SIGNAUX&lt;br&gt;(ctrl C/D)" style="ellipse;whiteSpace=wrap;html=1;" vertex="1" parent="1">
          <mxGeometry x="40" y="365" width="120" height="80" as="geometry" />
        </mxCell>
        <mxCell id="SkdwUXfXjUMocaD1cpHG-33" value="Valeur de sortie" style="shape=parallelogram;perimeter=parallelogramPerimeter;whiteSpace=wrap;html=1;fixedSize=1;" vertex="1" parent="1">
          <mxGeometry x="340" y="690" width="120" height="60" as="geometry" />
        </mxCell>
      </root>
    </mxGraphModel>
  </diagram>
</mxfile>
